<?xml version="1.0" encoding="UTF-8"?>
<svg width="68px" height="90px" viewBox="0 0 68 90" version="1.1" xmlns="http://www.w3.org/2000/svg" xmlns:xlink="http://www.w3.org/1999/xlink">
    <!-- Generator: sketchtool 51.3 (57544) - http://www.bohemiancoding.com/sketch -->
    <title>4AA1BE03-3B35-4FD4-A881-B59AF6B1381E</title>
    <desc>Created with sketchtool.</desc>
    <defs></defs>
    <g id="Page-1" stroke="none" stroke-width="1" fill="none" fill-rule="evenodd">
        <g id="menu-women" transform="translate(-487.000000, -236.000000)" fill-rule="nonzero">
            <g id="woman1" transform="translate(487.000000, 236.000000)">
                <path d="M26.3189189,51.227027 C28.2162162,47.5783784 29.2378378,44.027027 31.2324324,40.427027 C35.8054054,32.1567568 42.4702703,25.2486486 48.8432432,18.4378378 C42.6162162,15.9567568 37.3135135,10.8972973 33.6648649,5.35135135 C30.6,10.5567568 29.1405405,16.5405405 26.8540541,22.2324324 C25.8324324,24.7135135 24.6648649,29.627027 22.0864865,30.9405405 C20.9675676,31.5243243 20.627027,31.2810811 19.4108108,31.3297297 C17.0756757,31.427027 14.2540541,29.9675676 12.1135135,31.6702703 C8.07567568,34.9783784 9.14594595,40.6216216 8.9027027,45.972973 C8.75675676,49.7675676 6.27567568,52.9783784 4.03783784,55.9459459 C0.681081081,60.4702703 1.66533454e-15,64.8486486 1.16756757,69.0810811 C1.8,71.4162162 4.03783784,71.6594595 5.64324324,73.3621622 C6.95675676,74.772973 8.36756757,76.0378378 10.4108108,75.8918919 C11.4324324,74.1891892 10.9945946,71.6594595 11.627027,69.8108108 C12.6486486,66.7945946 14.5459459,64.3135135 16.7351351,62.027027 C19.9945946,58.6702703 23.9351351,55.7513514 26.3189189,51.227027 Z M7.92972973,69.9567568 C6.42162162,68.3027027 4.32972973,63.8756757 4.57297297,64.2648649 C5.69189189,66.1135135 6.95675676,67.8648649 8.46486486,69.4216216 C8.75675676,69.7621622 8.22162162,70.2972973 7.92972973,69.9567568 Z" id="Shape" fill="#F6F4F4"></path>
                <path d="M17.9027027,61.9297297 C20.772973,59.0108108 23.6918919,56.0432432 25.9297297,52.5891892 C28.1675676,49.1351351 29.5297297,45.1459459 31.4756757,41.4972973 C33.5675676,37.6054054 36,33.9567568 38.7243243,30.5027027 C38.6756757,36.972973 39.6972973,43.3945946 39.2108108,49.9135135 C38.9675676,53.3189189 38.1891892,56.2864865 36.6810811,59.3513514 C35.7081081,61.3459459 34.7837838,63.2918919 34.8810811,65.5783784 C34.9297297,67.3783784 35.5135135,69.3243243 36.7783784,70.6864865 C38.5297297,72.5351351 41.0108108,72.1459459 43.0540541,73.4108108 C46.4594595,75.5513514 46.4108108,79.9783784 48.5513514,82.9459459 C48.5513514,82.9459459 48.5513514,82.9459459 48.5513514,82.9459459 C49.3297297,84.2108108 50.6432432,84.6972973 51.9567568,85.4756757 C54.1945946,86.8864865 55.9945946,89.4648649 58.7189189,89.9027027 C63.4378378,90.7297297 65.5783784,84.6972973 67.1351351,81.3891892 C67.2324324,81.1945946 67.1351351,81.0486486 67.0378378,80.9513514 C67.2810811,79.3459459 67.2810811,77.8378378 66.1621622,76.427027 C64.4594595,74.1891892 61.6378378,73.1189189 59.3513514,71.6108108 C56.2378378,69.5675676 54.3891892,66.9891892 52.5891892,63.827027 C51.7621622,62.3675676 50.5459459,61.1027027 49.9135135,59.5459459 C49.1351351,57.6486486 49.3783784,55.5081081 49.7189189,53.5621622 C50.9837838,45.972973 53.7081081,38.4810811 55.8486486,31.0864865 C58.1837838,22.9135135 60.6162162,14.7891892 63,6.61621622 C63.6324324,6.08108108 64.2648649,5.54594595 64.8486486,5.01081081 C65.2378378,4.71891892 64.7027027,4.18378378 64.3135135,4.47567568 C59.2054054,8.80540541 54.3891892,13.2810811 49.4756757,17.9513514 C43.1513514,15.5189189 37.1189189,11.7243243 33.8108108,5.20540541 C34.8810811,3.5027027 36.0972973,1.41081081 37.8486486,0.340540541 C38.2378378,0.0972972973 37.7027027,-0.0972972973 37.3621622,0.243243243 C35.8540541,1.7027027 34.5891892,3.30810811 33.4702703,5.01081081 C33.227027,5.01081081 32.9351351,5.25405405 33.1297297,5.54594595 C33.1297297,5.54594595 33.1297297,5.54594595 33.1297297,5.54594595 C30.8918919,9.24324324 29.3837838,13.3297297 27.9243243,17.5135135 C26.6594595,21.1135135 25.4432432,24.8594595 23.4,28.1675676 C22.1837838,30.1621622 20.8216216,30.7945946 18.5837838,31.0378378 C16.9783784,31.2324324 15.4702703,30.4540541 13.8648649,30.6972973 C6.51891892,31.8648649 8.85405405,42.227027 7.68648649,46.9945946 C6.32432432,53.5135135 0.340540541,57.7459459 0.194594595,64.8 C0.145945946,66.1621622 0.291891892,67.572973 0.778378378,68.8378378 C1.45945946,70.5891892 2.87027027,71.5621622 4.13513514,72.8756757 C5.93513514,74.6756757 7.2,76.5243243 9.92432432,76.3783784 C10.0702703,76.4756757 10.3135135,76.5243243 10.4594595,76.2810811 C11.4324324,74.8216216 11.5297297,73.0216216 11.9189189,71.3675676 C12.9405405,67.572973 15.1783784,64.6540541 17.9027027,61.9297297 Z M55.1675676,30.8432432 C53.027027,38.2378378 50.3027027,45.7297297 49.0378378,53.3189189 C48.6486486,55.7513514 48.3567568,58.2810811 49.572973,60.5189189 C50.3027027,61.7837838 51.2756757,62.9027027 51.9567568,64.1675676 C52.6864865,65.4324324 53.3189189,66.7459459 54.2432432,67.9135135 C56.0432432,70.2972973 58.4756757,71.9513514 61.0054054,73.4594595 C62.4648649,74.3351351 64.0216216,75.2108108 65.2378378,76.4756757 C66.6972973,78.0810811 66.5513514,79.6864865 66.1621622,81.7297297 C66.1621622,81.7297297 66.1621622,81.7783784 66.1621622,81.7783784 C64.5567568,85.3297297 62.2216216,90.972973 57.5027027,88.7351351 C56.0432432,88.0540541 54.9243243,86.7891892 53.6594595,85.7675676 C52.3459459,84.7459459 50.1567568,84.0162162 49.2324324,82.5567568 C49.2324324,82.5567568 49.2324324,82.5567568 49.2324324,82.5081081 C49.1837838,82.4594595 49.1837838,82.4108108 49.1351351,82.3621622 C49.0864865,82.2648649 49.0378378,82.1675676 48.9891892,82.0702703 C48.9405405,81.972973 48.8918919,81.9243243 48.8432432,81.8756757 C47.3837838,79.3945946 46.9945946,76.3783784 45.0486486,74.0918919 C43.8324324,72.6324324 42.4216216,72.1459459 40.6216216,71.7081081 C36.8756757,70.7837838 35.1243243,67.3783784 35.8054054,63.6324324 C36.2918919,61.2 37.8486486,59.1567568 38.7243243,56.8702703 C39.6486486,54.5351351 39.8918919,51.9081081 40.0864865,49.427027 C40.4756757,42.7621622 39.4054054,36.1459459 39.5513514,29.4810811 C42.1783784,26.172973 45.0972973,23.0594595 48.0648649,20.0918919 C50.8864865,21.4054054 54.6324324,22.3783784 57.7945946,21.8918919 C56.8702703,24.9081081 56.0432432,27.8756757 55.1675676,30.8432432 Z M62.5135135,7.15135135 C61.1513514,11.7243243 59.6918919,16.5891892 58.3783784,21.1621622 C53.4162162,22.2324324 50.7891892,21.0162162 48.6,19.5567568 C52.8810811,15.3243243 57.9405405,11.0432432 62.5135135,7.15135135 Z M10.4108108,75.8918919 C8.36756757,76.0378378 6.95675676,74.772973 5.64324324,73.3621622 C4.03783784,71.6594595 2.04324324,70.8810811 1.16756757,68.5945946 C-0.291891892,64.9459459 0.632432432,60.4702703 4.03783784,55.9945946 C6.27567568,53.027027 8.75675676,49.8162162 8.9027027,46.0216216 C9.0972973,40.6702703 8.02702703,35.172973 12.1135135,31.8648649 C14.2054054,30.1621622 17.2216216,31.8162162 19.5567568,31.7189189 C20.8216216,31.6702703 20.9675676,31.5243243 22.0864865,30.9891892 C24.6648649,29.7243243 25.5891892,25.1513514 26.6108108,22.6702703 C28.9459459,16.9783784 30.3567568,10.6540541 33.5675676,5.88648649 C37.2162162,11.4324324 42.6648649,16.0054054 48.8918919,18.4864865 C41.8864865,25.8810811 35.7567568,32.1081081 31.2324324,40.3783784 C29.2378378,43.9783784 27.972973,48.5027027 25.8324324,52.0054054 C23.4,55.9945946 19.9945946,58.6702703 16.7837838,61.9783784 C14.5945946,64.2162162 12.6972973,66.7459459 11.6756757,69.7621622 C11.0432432,71.6594595 11.4324324,74.1891892 10.4108108,75.8918919 Z" id="Shape" fill="#000000"></path>
                <path d="M4.57297297,64.2648649 C4.32972973,63.8756757 6.42162162,68.3027027 7.92972973,69.9567568 C8.27027027,70.2972973 8.80540541,69.7621622 8.46486486,69.4216216 C6.95675676,67.8162162 5.69189189,66.1135135 4.57297297,64.2648649 Z" id="Shape" fill="#000000"></path>
                <path d="M57.0648649,83.7243243 C59.5945946,83.2378378 61.7837838,81.6810811 63.0972973,79.4918919 C63.3405405,79.1027027 62.7081081,78.7135135 62.4648649,79.1027027 C61.2,81.1945946 59.2540541,82.5567568 56.8702703,82.9945946 C56.3837838,83.0918919 56.5783784,83.8216216 57.0648649,83.7243243 Z" id="Shape" fill="#000000"></path>
                <path d="M48.0162162,20.1405405 C45,23.1081081 41.8864865,26.7567568 39.2108108,30.0648649 C39.0648649,36.7297297 39.9891892,42.7621622 39.6,49.427027 C39.4540541,51.9081081 39.5513514,54.5837838 38.6756757,56.9189189 C37.8,59.2054054 35.8540541,61.5405405 35.4162162,63.972973 C34.6864865,67.7189189 36.5351351,70.8810811 40.2810811,71.8054054 C42.1297297,72.2432432 43.8324324,72.6810811 45.0486486,74.1405405 C46.9459459,76.427027 48.4540541,82.2162162 48.5027027,82.2162162 C49.427027,83.6756757 52.3945946,84.7459459 53.7081081,85.7675676 C54.972973,86.7405405 56.3351351,88.6378378 57.7945946,89.3189189 C62.5135135,91.5567568 64.6054054,85.3297297 66.2108108,81.7783784 C66.2108108,81.7783784 66.2108108,81.7297297 66.2108108,81.7297297 C66.5513514,79.6864865 67.1837838,77.8864865 65.7243243,76.2810811 C64.5567568,75.0162162 62.5621622,74.3351351 61.0540541,73.4594595 C58.5243243,71.9513514 57.1135135,70.6864865 55.2648649,68.3513514 C54.3405405,67.1837838 53.2702703,65.6756757 52.5405405,64.3621622 C51.8108108,63.0972973 50.3027027,61.7837838 49.6216216,60.5189189 C48.3567568,58.2810811 49.1837838,55.6054054 49.572973,53.172973 C50.8378378,45.5837838 53.5135135,38.1891892 55.6540541,30.8432432 C56.5297297,27.8756757 57.2594595,24.8594595 58.1351351,21.8918919 C54.9243243,22.3783784 50.8378378,21.4540541 48.0162162,20.1405405 Z M56.8702703,83.0432432 C59.2540541,82.5567568 61.2,81.1945946 62.4648649,79.1513514 C62.7081081,78.7621622 63,81.3891892 57.0648649,83.772973 C56.5783784,83.9189189 56.3837838,83.0918919 56.8702703,83.0432432 Z" id="Shape" fill="#F6F4F4"></path>
                <path d="M22.8162162,34.7351351 C20.5783784,35.2702703 18,35.8540541 17.027027,38.1891892 C16.8324324,38.627027 17.5621622,38.8216216 17.7567568,38.3837838 C18.5837838,36.3891892 23.2540541,34.6378378 22.8162162,34.7351351 Z" id="Shape" fill="#000000"></path>
                <path d="M40.3297297,55.6054054 C39.8432432,57.6 39.4054054,59.5945946 40.2810811,61.5405405 C40.4756757,61.9783784 41.1081081,61.5891892 40.9135135,61.1513514 C40.1837838,59.4486486 40.4756757,55.1675676 40.3297297,55.6054054 Z" id="Shape" fill="#000000"></path>
            </g>
        </g>
    </g>
</svg>