<?xml version="1.0" encoding="UTF-8"?>
<svg width="48px" height="90px" viewBox="0 0 48 90" version="1.1" xmlns="http://www.w3.org/2000/svg" xmlns:xlink="http://www.w3.org/1999/xlink">
    <!-- Generator: sketchtool 51.3 (57544) - http://www.bohemiancoding.com/sketch -->
    <title>51E454E0-F0CA-46A2-B55A-14D2157444D1</title>
    <desc>Created with sketchtool.</desc>
    <defs></defs>
    <g id="Page-1" stroke="none" stroke-width="1" fill="none" fill-rule="evenodd">
        <g id="menu-women" transform="translate(-790.000000, -236.000000)">
            <g id="woman2" transform="translate(790.000000, 236.000000)">
                <path d="M1.875,57.984375 C2.0625,59.8125 2.015625,61.640625 2.015625,63.46875 C1.96875,66.796875 1.875,70.21875 3.09375,73.359375 C5.15625,78.65625 10.875,81.5625 16.359375,80.625 C16.125,81.140625 15.890625,81.65625 15.65625,82.171875 C14.296875,85.078125 14.625,88.40625 17.34375,89.34375 C17.390625,89.484375 17.484375,89.625 17.671875,89.578125 C17.859375,89.578125 18.046875,89.53125 18.234375,89.53125 C18.609375,89.578125 18.984375,89.625 19.453125,89.578125 C19.59375,89.578125 19.6875,89.484375 19.734375,89.4375 C23.953125,89.0625 28.125,88.3125 32.203125,87.09375 C35.34375,86.15625 36.234375,83.90625 35.15625,80.8125 C34.359375,78.609375 33.984375,76.59375 33.515625,74.296875 C33.1875,72.703125 32.296875,70.921875 32.625,69.28125 C32.953125,67.6875 33.5625,66.5625 33.5625,64.875 C33.5625,62.8125 33.234375,60.796875 33.046875,58.734375 C33.515625,50.296875 37.3125,42.328125 40.171875,34.5 C43.21875,26.25 46.21875,17.953125 47.765625,9.28125 C47.859375,8.8125 47.109375,8.578125 47.015625,9.09375 C45.375,18.09375 45.515625,18.75 42.328125,27.28125 C40.265625,32.90625 34.5,46.453125 33.140625,52.359375 C33.140625,52.359375 33.09375,52.359375 33.09375,52.40625 C31.734375,53.578125 30.328125,54.46875 28.546875,54.46875 C27.09375,54.421875 23.953125,53.953125 23.578125,52.078125 C23.53125,51.890625 23.4375,51.84375 23.296875,51.796875 C24.421875,42.703125 24.375,35.109375 23.90625,25.78125 C23.90625,25.734375 24.140625,23.671875 24.140625,23.625 C24.890625,22.078125 25.640625,20.53125 26.390625,18.984375 C28.359375,14.671875 30,10.265625 30.515625,5.53125 C30.5625,5.0625 29.8125,5.0625 29.765625,5.53125 C29.15625,11.25 27.65625,15.515625 25.125,20.71875 C23.109375,24.890625 19.171875,30.421875 18.375,35.109375 C14.390625,36.234375 11.859375,34.265625 9,32.0625 C8.953125,32.015625 8.859375,32.015625 8.8125,32.015625 C9.28125,28.828125 9.46875,25.546875 9.328125,22.453125 C8.765625,9.046875 8.90625,7.734375 11.25,0.796875 C11.390625,0.328125 10.6875,0.140625 10.5,0.609375 C8.578125,6.328125 8.53125,12.46875 8.53125,18.46875 C8.578125,24.5625 8.953125,31.078125 6.84375,36.890625 C4.828125,42.234375 -1.3125,45.796875 0.46875,52.21875 C0.984375,54.1875 1.6875,55.96875 1.875,57.984375 Z M27.65625,54.75 C29.765625,54.984375 31.359375,54.609375 32.953125,53.484375 C32.625,55.21875 32.34375,56.953125 32.25,58.734375 C32.53125,62.0625 33.140625,65.203125 32.0625,68.4375 C31.359375,70.546875 32.296875,72.375 32.765625,74.4375 C33.09375,76.03125 33.140625,77.671875 33.703125,79.265625 C34.3125,81 35.71875,82.921875 34.453125,84.84375 C33.890625,85.6875 32.625,86.109375 31.6875,86.390625 C27.328125,87.65625 22.875,88.453125 18.328125,88.734375 C16.21875,88.40625 15.234375,86.625 15.609375,84.28125 C15.84375,82.921875 16.78125,81.609375 17.390625,80.390625 C18.515625,78.1875 19.3125,75.796875 19.734375,73.359375 C20.15625,71.015625 20.109375,68.671875 20.0625,66.328125 C20.015625,63.140625 20.90625,60.421875 21.84375,57.421875 C22.3125,55.921875 22.734375,54.375 23.0625,52.875 C23.859375,54.375 26.109375,54.5625 27.65625,54.75 Z M19.03125,35.765625 C19.03125,35.765625 19.03125,35.765625 19.03125,35.765625 C19.5,35.71875 19.546875,35.015625 19.125,35.015625 C19.640625,32.109375 21.28125,29.4375 22.59375,26.8125 C22.921875,26.203125 23.203125,25.59375 23.53125,24.9375 C23.859375,31.3125 24.140625,37.6875 23.671875,44.015625 C23.390625,47.53125 22.875,51.09375 21.984375,54.515625 C21.234375,57.421875 19.921875,60.234375 19.5,63.234375 C19.40625,63.984375 19.359375,64.734375 19.3125,65.4375 C17.953125,60.84375 16.921875,55.921875 17.671875,51.1875 C18.09375,48.609375 18.890625,46.21875 18.984375,43.59375 C19.03125,41.015625 18.703125,38.390625 19.03125,35.765625 Z M6.09375,40.171875 C7.453125,37.875 8.25,35.34375 8.671875,32.71875 C11.578125,34.96875 14.625,36.046875 18.234375,35.8125 C18.1875,36.046875 18.1875,36.28125 18.140625,36.515625 C17.953125,39.140625 18.328125,41.8125 18.140625,44.4375 C18,47.15625 16.921875,49.6875 16.734375,52.40625 C16.359375,57.421875 17.578125,62.578125 19.078125,67.3125 C19.125,67.453125 19.171875,67.5 19.265625,67.546875 C19.265625,69.421875 19.3125,71.25 18.984375,73.125 C18.9375,73.265625 18.9375,73.40625 18.890625,73.546875 C16.125,73.265625 13.40625,73.59375 10.734375,74.484375 C10.265625,74.625 10.453125,75.375 10.921875,75.234375 C13.453125,74.390625 16.03125,74.0625 18.703125,74.296875 C18.234375,76.21875 17.484375,77.953125 16.6875,79.734375 C12.328125,80.71875 7.546875,79.03125 4.921875,75.328125 C2.390625,71.765625 2.625,67.171875 2.671875,63 C2.71875,60.984375 2.71875,59.015625 2.4375,57.046875 C2.15625,55.171875 1.40625,53.484375 0.984375,51.65625 C-0.046875,46.640625 3.84375,43.96875 6.09375,40.171875 Z" id="Shape" fill="#000000" fill-rule="nonzero"></path>
                <path d="M18.703125,83.25 C22.078125,81.984375 25.59375,81.5625 29.203125,81.984375 C29.671875,82.03125 29.671875,81.28125 29.203125,81.234375 C25.546875,80.8125 21.984375,81.234375 18.515625,82.546875 C18.046875,82.6875 18.234375,83.4375 18.703125,83.25 Z" id="Shape" fill="#000000" fill-rule="nonzero"></path>
                <path d="M17.671875,51.234375 C16.921875,55.921875 17.953125,60.890625 19.3125,65.484375 C19.3125,64.734375 19.359375,63.984375 19.5,63.28125 C19.921875,60.28125 21.1875,57.46875 21.984375,54.5625 C22.875,51.140625 23.390625,47.578125 23.671875,44.0625 C24.140625,37.6875 23.859375,31.3125 23.53125,24.984375 C23.203125,25.59375 22.921875,26.203125 22.59375,26.859375 C21.28125,29.484375 19.6875,32.15625 19.125,35.0625 C19.546875,35.109375 19.5,35.765625 19.03125,35.8125 C19.03125,35.8125 18.984375,35.8125 18.984375,35.8125 C18.65625,38.4375 18.984375,41.0625 18.9375,43.6875 C18.9375,46.265625 18.09375,48.65625 17.671875,51.234375 Z" id="Shape"></path>
                <path d="M2.53125,57.046875 C2.8125,59.015625 2.8125,61.03125 2.765625,63 C2.71875,67.171875 2.109375,71.859375 4.59375,75.46875 C7.21875,79.171875 12,81.28125 16.40625,80.296875 C17.203125,78.515625 18.28125,76.265625 18.75,74.34375 C16.078125,74.109375 13.5,74.4375 10.96875,75.28125 C10.5,75.421875 10.3125,74.71875 10.78125,74.53125 C13.453125,73.640625 16.125,73.3125 18.9375,73.59375 C18.984375,73.453125 18.984375,73.3125 19.03125,73.171875 C19.359375,71.296875 19.3125,69.46875 19.3125,67.59375 C19.21875,67.546875 19.171875,67.5 19.125,67.359375 C17.625,62.625 16.828125,58.78125 17.203125,53.8125 C17.390625,51.09375 18.328125,46.640625 18.46875,43.921875 C18.609375,41.296875 18.515625,39.1875 18.703125,36.5625 C18.703125,36.328125 18.234375,36.09375 18.234375,35.859375 C14.625,36.09375 11.109375,34.59375 8.15625,32.34375 C7.6875,34.96875 7.40625,37.875 6.046875,40.171875 C3.796875,43.96875 -0.609375,46.5 0.515625,51.515625 C0.984375,53.34375 2.25,55.171875 2.53125,57.046875 Z" id="Shape" fill="#F6F4F4" fill-rule="nonzero"></path>
                <path d="M21.890625,57.421875 C20.953125,60.421875 19.59375,60.046875 19.828125,66.609375 C19.921875,69 20.15625,71.015625 19.734375,73.359375 C19.3125,75.796875 17.90625,78.328125 16.78125,80.53125 C16.171875,81.75 15.46875,83.71875 15.28125,85.078125 C14.90625,87.421875 16.453125,88.6875 18.5625,89.015625 C23.109375,88.734375 27.328125,87.609375 31.6875,86.34375 C32.625,86.0625 33.890625,85.6875 34.453125,84.796875 C35.71875,82.875 35.109375,81.84375 34.546875,80.109375 C33.984375,78.5625 33.09375,76.03125 32.765625,74.390625 C32.34375,72.28125 31.265625,70.453125 32.0625,68.390625 C34.265625,62.71875 32.53125,62.015625 32.25,58.6875 C32.34375,56.90625 32.765625,54.84375 33.140625,53.109375 C31.546875,54.234375 29.71875,54.9375 27.609375,54.703125 C26.0625,54.515625 23.625,53.859375 22.828125,52.359375 C22.546875,53.953125 22.359375,55.921875 21.890625,57.421875 Z M29.203125,81.234375 C29.671875,81.28125 29.671875,82.03125 29.203125,81.984375 C25.59375,81.5625 22.125,81.984375 18.703125,83.25 C18.234375,83.4375 18.046875,82.6875 18.515625,82.5 C21.984375,81.234375 25.5,80.765625 29.203125,81.234375 Z" id="Shape" fill="#F6F4F4" fill-rule="nonzero"></path>
                <path d="M7.640625,39.515625 C7.21875,40.3125 6.84375,41.15625 6.421875,41.953125 C6.1875,42.421875 5.625,43.078125 5.671875,43.640625 C5.671875,44.0625 6.09375,44.578125 6.328125,44.90625 C6.796875,45.703125 7.265625,46.453125 7.78125,47.203125 C8.0625,47.625 8.71875,47.203125 8.4375,46.828125 C7.875,45.984375 6.65625,44.625 6.65625,43.59375 C6.609375,42.515625 7.875,39.046875 7.640625,39.515625 Z" id="Shape" fill="#000000" fill-rule="nonzero"></path>
            </g>
        </g>
    </g>
</svg>