<?xml version="1.0" encoding="UTF-8"?>
<svg width="77px" height="90px" viewBox="0 0 77 90" version="1.1" xmlns="http://www.w3.org/2000/svg" xmlns:xlink="http://www.w3.org/1999/xlink">
    <!-- Generator: sketchtool 51.3 (57544) - http://www.bohemiancoding.com/sketch -->
    <title>B7AFA5F7-9B25-4FE6-88EF-097FB7B5B733</title>
    <desc>Created with sketchtool.</desc>
    <defs></defs>
    <g id="Page-1" stroke="none" stroke-width="1" fill="none" fill-rule="evenodd">
        <g id="menu-women" transform="translate(-1361.000000, -236.000000)" fill-rule="nonzero">
            <g id="woman4" transform="translate(1361.000000, 236.000000)">
                <path d="M12.95,82.65 C15.4,83.35 20,82.75 22.25,81.75 C22.3,81.75 22.35,81.75 22.4,81.7 C22.5,81.65 22.6,81.6 22.7,81.55 C23.25,81.3 23.75,80.95 24.25,80.6 C25.5,79.7 26.75,78.75 28.15,78.05 C30.4,76.95 36.05,77.1 38.5,77.15 C42.1,77.2 45.5,77.45 48.85,75.95 C49.05,75.85 49.1,75.7 49.05,75.5 C51,73.95 51.7,70.95 51.1,68.45 C50.1,64.35 47.2,60.65 45.4,56.9 C44.15,54.3 44.2,51.3 44.15,48.45 C44.05,44.7 44.2,40.95 44.4,37.2 C44.7,31.05 45.1,24.9 45.2,18.75 C45.35,19.15 45.5,19.55 45.65,19.95 C49.1,29.45 50.65,31.2 51.55,41.15 C51.95,45.7 51.5,58.8 52.15,63.3 C52.4,65.1 52.45,66.7 52.2,68.35 C52.15,68.4 52.15,68.5 52.15,68.55 C52.15,68.6 52.15,68.65 52.15,68.7 C52.05,69.45 51.9,70.2 51.65,71 C51.2,72.75 50.75,74.5 50.65,76.3 C50.55,78.55 50.3,90.25 54.6,89.8 C54.65,89.85 54.75,89.9 54.85,89.9 C58.65,89.75 58.5,88.45 61.9,87.2 C66.8,85.4 69.65,83 71.7,81 C72.5,80.2 74.15,77.2 74.65,75.65 C76.65,70.1 75.05,71.1 74.8,65.3 C74.6,60.75 74.95,54.65 76,50.2 C76.6,47.7 77.05,46.65 76.45,43.55 C76.05,41.35 75.1,40.35 72.6,38.35 C69.1,35.6 67.35,34.4 64.9,27.25 C62.8,21.1 61,7 60.15,0.6 C60.05,0.05 59.85,0.35 59.9,0.9 C60.7,6.75 61.95,20.1 63.55,25.8 C66,34.55 68.85,36.1 68.9,36.15 C71.05,40.45 71.1,40.45 71.7,44.9 C72.25,49.1 70.55,53.7 71.1,57.95 C71.8,63.05 71.8,67.05 67.55,69.95 C65.1,71.6 57.45,75.75 52.9,71.75 C52.95,71.4 53.2,68.6 53.25,68.25 C53.75,64.35 52.5,60.05 52.15,56.2 C51.7,51.15 52.55,43 52,38 C51.1,29.95 48.65,25 45.65,17.45 C45.5,17.15 45.4,16.8 45.25,16.5 C45.25,16.3 45.25,16.1 45.25,15.9 C45.25,15.65 45.05,15.5 44.85,15.5 C42.85,10.55 40.65,5.7 38.2,0.95 C37.95,0.45 37.15,0.9 37.45,1.4 C40,6.3 42.7,11.6 44.75,16.75 C44.75,29 42.65,41.05 43.65,53.3 C43.9,56.65 45.75,59.35 47.3,62.3 C47.55,62.8 47.8,63.25 48.1,63.75 C45.8,68.75 41,71.6 35.75,72.5 C31.3,73.3 21.15,73.95 17,71.25 C21.4,68.2 28.2,62.4 29.9,57.25 C32.1,50.6 29.75,44.7 28.1,38.1 C25.25,26.35 20.4,14.9 19.6,2.75 C19.55,2.2 19.45,2.25 19.5,2.8 C20.15,12.7 23.3,22.65 26.3,32.05 C28.55,39.15 30.7,47.2 29.95,54.75 C29.25,61.55 21.9,66.85 16.4,70.6 C16.4,70.6 16.35,70.6 16.35,70.6 C16.25,70.7 16.1,70.75 16,70.8 C15.95,70.8 15.95,70.85 15.9,70.85 C11.8,73.45 7.55,75.7 3.05,77.55 C2.95,77.6 1.5,78 1.45,78.05 C0.35,78.55 -0.25,79.2 0.1,80.4 C0.65,82.25 4.4,83 6.1,83.15 C9,83.4 9.55,81.7 12.95,82.65 Z M3.2,78.5 C3.3,78.45 3.35,78.4 3.4,78.35 C7.85,76.5 12.1,74.3 16.15,71.7 C20.4,74.75 26.8,73.7 31.6,73 C37.25,72.15 45.85,69.9 48.55,64.65 C49.1,65.7 49.6,66.75 50,67.85 C51,70.75 50.2,75.35 46.45,75.65 C46.25,75.65 46.15,75.8 46.05,75.9 C42.4,76.7 35.45,75.7 31.7,76.15 C28.55,76.5 26.4,78.2 23.95,79.75 C23.85,79.75 23.8,79.8 23.7,79.85 C23.5,80 23.3,80.15 23.1,80.25 C22.7,80.5 22.35,80.7 21.9,80.9 C18.9,82.25 15.7,81.55 12.4,81.75 C10.8,81.85 9.25,82.2 7.65,82.3 C6.6,82.35 5.45,82.35 4.4,82 C3.4,81.65 0.85,79.4 3.2,78.5 Z" id="Shape" fill="#000000"></path>
                <path d="M58.15,82.65 C60.55,79.75 63.85,78.1 67.6,77.85 C68.15,77.8 68.15,76.95 67.6,76.95 C63.65,77.15 60.05,78.95 57.55,82 C57.2,82.45 57.8,83.1 58.15,82.65 Z" id="Shape" fill="#000000"></path>
                <path d="M8.4,82.65 C11.75,81.5 13.85,82.35 14.6,82.35 C17.7,82.35 19.75,82.2 22.75,80.85 C23.15,80.65 28.6,76.5 31.7,76.15 C35.45,75.75 41.8,77.1 45.45,76.3 C45.5,76.15 46.75,76 46.95,76 C50.7,75.7 51,70.75 50,67.85 C49.6,66.75 49.1,65.7 48.55,64.65 C45.9,69.9 37.9,72.15 32.25,73 C27.45,73.7 19.9,74.7 15.65,71.65 C11.6,74.25 9,75.6 4.55,77.45 C4.5,77.5 1.55,78.6 1.45,78.65 C-0.9,79.55 1.45,82.05 4.4,82.65 C5.45,82.85 7.4,83 8.4,82.65 Z" id="Shape" fill="#F6F4F4"></path>
                <path d="M54.35,89.5 C54.45,89.5 54.6,89.6 54.65,89.65 C59.7,89.2 57.75,88.15 65.3,85.2 C69.15,83.7 71.4,80.7 73.45,77.05 C75.9,71.45 74.8,70.55 74.2,64.3 C73.9,60.95 74.2,53.6 75.1,50.35 C75.6,48.6 75.8,46.85 75.7,45 C75.55,42.7 74.7,40.75 72.85,39.25 C72,38.55 71.1,38.05 70.2,37.45 C72.55,42.25 72.85,45.4 72.15,50.65 C71.75,53.6 71.55,54.65 72.15,59.7 C72.4,61.7 71.9,65.05 70.8,66.8 C68.45,70.6 64.15,73.3 59.5,74.1 C57.1,74.5 53.45,74.05 52.15,72.4 C51.6,74.75 51.2,77.75 51.25,80.25 C51.3,81.7 51.55,89.8 54.35,89.5 Z" id="Shape" fill="#F6F4F4"></path>
                <path d="M39.95,66.7 C43.7,65.8 43.2,61.4 42.4,58.6 C42.25,58.05 44.3,65.3 39.75,65.85 C39.15,65.95 39.4,66.85 39.95,66.7 Z" id="Shape" fill="#000000"></path>
                <path d="M68.7,44.7 C71.7,40.3 66.95,36.9 65,33.15 C64.75,32.65 67.5,37.85 68.15,39.15 C69.55,41.9 69.3,42.2 67.9,44.25 C67.6,44.7 68.35,45.15 68.7,44.7 Z" id="Shape" fill="#000000"></path>
                <path d="M53,86.55 C54.55,85.35 56.5,85 58.35,85.6 C58.6,85.65 58.7,85.3 58.45,85.25 C56.5,84.65 54.45,85 52.8,86.25 C52.6,86.4 52.8,86.7 53,86.55 Z" id="Shape" fill="#000000"></path>
            </g>
        </g>
    </g>
</svg>