<?xml version="1.0" encoding="UTF-8"?>
<svg width="86px" height="90px" viewBox="0 0 86 90" version="1.1" xmlns="http://www.w3.org/2000/svg" xmlns:xlink="http://www.w3.org/1999/xlink">
    <!-- Generator: sketchtool 51.3 (57544) - http://www.bohemiancoding.com/sketch -->
    <title>E2F4E062-F889-418B-8C1A-5CB583688F10</title>
    <desc>Created with sketchtool.</desc>
    <defs></defs>
    <g id="Page-1" stroke="none" stroke-width="1" fill="none" fill-rule="evenodd">
        <g id="menu-women" transform="translate(-1063.000000, -236.000000)" fill-rule="nonzero">
            <g id="woman3" transform="translate(1063.000000, 236.000000)">
                <path d="M25.2931034,78.362069 C28.5,76.137931 31.9655172,75.7241379 35.7413793,75.4137931 C40.3965517,75.1034483 46.4482759,74.6896552 48.362069,69.5689655 C49.1896552,67.3448276 48.7758621,64.9655172 48.2068966,62.7413793 C47.7931034,61.0862069 47.3275862,59.4827586 46.862069,57.8793103 C46.9137931,57.8275862 46.9655172,57.7758621 46.9655172,57.7241379 C47.1724138,57.4137931 46.9137931,57.1551724 46.6551724,57.1034483 C46.137931,55.137931 45.6724138,53.1206897 45.4655172,51 C43.862069,35.4827586 49.4482759,19.862069 46.7586207,4.44827586 C49.4482759,10.2413793 52.1896552,16.0344828 54.6724138,21.9310345 C56.0689655,25.3448276 57.3103448,28.7586207 58.2413793,32.3275862 C59.637931,37.6551724 59.6896552,42.8275862 59.5344828,48.2586207 C59.4310345,52.3448276 59.637931,56.0689655 60.5172414,60.0517241 C61.4482759,64.3965517 63.1034483,69.4655172 60.4137931,73.4482759 C59.637931,74.637931 57.3103448,76.3448276 57.2586207,76.2931034 C56.8448276,76.0344828 56.0172414,77.4310345 55.6551724,77.637931 C54.5172414,78.3103448 52.7586207,78.8793103 52.0862069,80.1206897 C50.8965517,82.2931034 53.637931,84.7241379 55.0862069,85.9655172 C60.2068966,90.362069 67.3965517,90.6724138 73.4482759,87.8275862 C73.5517241,87.8275862 75.4137931,86.2758621 75.4655172,86.2758621 C75.5689655,86.2241379 78.2068966,84.4137931 78.6206897,81.6206897 C79.1896552,77.8448276 78.2586207,73.862069 78.1551724,70.0862069 C78,65.2241379 80.4310345,62.5344828 82.9655172,58.7068966 C85.0344828,55.6034483 86.5862069,51.4137931 85.6551724,47.637931 C84.6206897,43.4482759 80.2241379,41.7931034 77.4827586,38.8448276 C74.5862069,35.6896552 72.6206897,32.2758621 72.4655172,27.9310345 C72.1034483,18.7241379 72.6206897,9.62068966 71.2241379,0.465517241 C71.1206897,-0.0517241379 70.2413793,0.155172414 70.3965517,0.672413793 C73.137931,11.4827586 71.2758621,18.7758621 71.637931,27.8793103 C71.7413793,30.5172414 72.362069,33 73.7068966,35.2758621 C73.862069,35.5862069 74.0689655,35.8448276 74.2758621,36.1551724 C74.2241379,36.2586207 76.2413793,38.4827586 76.3448276,38.637931 C81.2068966,45.0517241 71.637931,53.637931 60.4137931,52.9655172 C60.2586207,49.6034483 60.5689655,46.2413793 60.5689655,42.9310345 C60.5172414,35.3793103 57.8275862,28.137931 54.9310345,21.2068966 C52.137931,14.5344828 49.4482759,8.22413793 46.4482759,1.65517241 C46.3965517,1.5 46.2931034,1.44827586 46.137931,1.44827586 C46.0344828,1.0862069 45.9310345,0.724137931 45.8275862,0.362068966 C45.6724138,-0.155172414 44.8448276,0.0517241379 45,0.568965517 C48.7241379,13.9655172 46.5,25.1896552 44.5862069,38.3275862 C43.7586207,43.9137931 44.4827586,52.2931034 45.8275862,57.6724138 C41.1724138,63.1034483 33.4137931,59.1724138 27.9827586,56.0689655 C30,52.6551724 31.2413793,48.7241379 30.4137931,44.3275862 C26.8965517,26.5862069 25.137931,18.5172414 24.9310345,9.82758621 C24.6724138,-1.13793103 24.4655172,6.15517241 24.362069,6.67241379 C22.9655172,14.637931 28.1896552,34.3965517 29.3275862,42.1551724 C29.9482759,46.2413793 30,50.637931 28.1896552,54.4655172 C27.9310345,54.9827586 27.6724138,55.4482759 27.362069,55.9655172 C27.2068966,56.0172414 27.1551724,56.1724138 27.1034483,56.3275862 C25.2931034,59.0689655 22.6034483,61.2931034 20.1206897,63.362069 C16.862069,66.0517241 16.7068966,66.7241379 12.7758621,68.0689655 C10.137931,68.9482759 5.17241379,71.3793103 3.51724138,73.6551724 C0.879310345,77.1724138 -1.39655172,81.8275862 1.65517241,86.3793103 C4.81034483,91.0862069 12.7241379,86.7931034 16.7586207,84.4655172 C19.8103448,82.6551724 22.3965517,80.3793103 25.2931034,78.362069 Z M77.7413793,40.2413793 C79.7068966,42.5172414 79.9137931,41.9482759 82.2931034,43.9655172 C87,48 84.8793103,54.6206897 81.7758621,59.0172414 C79.9137931,61.6551724 77.6896552,64.0862069 77.3793103,67.4482759 C77.0172414,71.0689655 77.7931034,74.7931034 77.9482759,78.4655172 C78,80.2241379 78.0517241,82.2413793 77.1724138,83.8448276 C76.3965517,85.2931034 74.8448276,86.4310345 73.6551724,87.6206897 C70.2413793,89.3275862 66.4137931,89.7413793 62.6896552,88.9137931 C60.9827586,88.5 59.3275862,87.8793103 57.8793103,87 C57.0517241,86.4827586 56.2241379,85.9137931 55.5,85.2931034 C54.1551724,84.1034483 53.8965517,83.7413793 53.8448276,81.7758621 C53.7931034,79.5517241 53.8965517,79.862069 55.4482759,78.9827586 C56.1724138,78.5689655 56.8448276,78.1551724 57.5172414,77.6896552 C57.5172414,77.6896552 57.5689655,77.637931 57.5689655,77.637931 C59.9482759,79.1896552 62.0172414,81.0517241 63.7758621,83.2758621 C64.137931,83.6896552 64.7068966,83.1206897 64.3965517,82.6551724 C62.6896552,80.4827586 60.6206897,78.6206897 58.3448276,77.1206897 C59.2241379,76.4482759 60.1034483,75.6724138 60.7758621,74.7931034 C62.5344828,72.5689655 63.0517241,69.9827586 62.7931034,67.1896552 C62.4827586,63.7241379 61.4482759,60.4137931 60.8793103,57 C60.7241379,56.0172414 60.6206897,54.9827586 60.5689655,54 C71.7413793,54.0517241 80.5862069,45.5172414 77.7413793,40.2413793 Z M5.89655172,87.3103448 C0.517241379,87.2068966 -0.620689655,82.3448276 1.39655172,78.0517241 C3.10344828,74.4310345 5.48275862,71.1724138 9.31034483,69.7241379 C11.7931034,68.7931034 14.3793103,68.2758621 16.7068966,66.8793103 C19.3448276,65.3275862 21.7241379,63.1551724 23.9482759,61.0862069 C25.3965517,59.7413793 26.5862069,58.2931034 27.5689655,56.7931034 C33.3103448,59.2241379 41.0689655,63.8275862 46.137931,58.6551724 C46.2931034,59.1724138 46.4482759,59.7413793 46.6034483,60.2586207 C47.6896552,63.7758621 49.137931,67.9655172 46.3965517,71.1206897 C44.2241379,73.6034483 40.7586207,74.1206897 37.6551724,74.3793103 C32.5862069,74.7931034 28.1896552,75 24,78.1551724 C18.9827586,82.0344828 12.6724138,87.4655172 5.89655172,87.3103448 Z" id="Shape" fill="#000000"></path>
                <path d="M62.3275862,68.637931 C62.5862069,71.4310345 62.4310345,72.4137931 60.6724138,74.637931 C60,75.5172414 59.1206897,76.2931034 58.2413793,76.9655172 C60.5689655,78.5172414 62.5862069,80.3275862 64.2931034,82.5 C64.6551724,82.9137931 59.8448276,79.0344828 57.4655172,77.4827586 C57.4655172,77.4827586 57.4137931,77.5344828 57.4137931,77.5344828 C56.7413793,78 56.0689655,78.4137931 55.3448276,78.8275862 C53.7931034,79.7068966 53.1206897,80.0172414 52.5517241,81.1551724 C51.6724138,82.9137931 54.6206897,85.4482759 55.8103448,85.7068966 C56.7413793,85.9137931 56.9482759,86.637931 57.8275862,87.1551724 C59.3275862,88.0344828 60.8275862,88.4482759 62.5344828,88.8103448 C66.2586207,89.6896552 70.0862069,89.2241379 73.5,87.5172414 C74.6896552,86.3275862 76.2413793,85.2413793 77.0172414,83.7413793 C77.8965517,82.137931 77.8965517,80.1206897 77.7931034,78.362069 C77.637931,74.7413793 77.1206897,71.4827586 77.4827586,67.862069 C77.7931034,64.5517241 80.8965517,60.5172414 82.7586207,57.8793103 C85.862069,53.5344828 86.8965517,48 82.137931,43.9137931 C79.7586207,41.8965517 79.862069,42.6206897 77.8965517,40.3448276 C79.9137931,45.9310345 70.3448276,54.3103448 60.3103448,53.7931034 C59.7413793,54.1551724 60.1551724,57.5689655 60.4655172,58.7586207 C61.6034483,62.1206897 62.0172414,65.1724138 62.3275862,68.637931 Z" id="Shape" fill="#F6F4F4"></path>
                <path d="M39.0517241,74.7931034 C42.1551724,74.5344828 44.8965517,73.6034483 47.0689655,71.0689655 C49.8103448,67.9137931 47.6896552,63.8275862 46.6034483,60.3103448 C46.4482759,59.7931034 46.2931034,59.2241379 46.137931,58.7068966 C41.0689655,63.8793103 33.3103448,59.2758621 27.5689655,56.8448276 C26.5862069,58.3448276 25.3965517,59.7413793 23.9482759,61.137931 C21.7241379,63.2068966 19.3448276,65.3793103 16.7068966,66.9310345 C14.3793103,68.2758621 11.7931034,68.7931034 9.31034483,69.7758621 C5.48275862,71.2241379 3.10344828,74.4827586 1.39655172,78.1034483 C-0.620689655,82.3965517 0.982758621,87.7241379 6.36206897,87.8275862 C13.137931,87.9827586 20.1206897,81.6724138 25.1896552,77.8448276 C29.4310345,74.5862069 33.9827586,75.2068966 39.0517241,74.7931034 Z" id="Shape" fill="#F6F4F4"></path>
                <path d="M39.0517241,61.4482759 C41.5862069,60.4137931 42.9827586,57.4655172 42,54.8793103 C41.7931034,54.362069 42.7241379,59.6896552 38.8448276,60.6206897 C38.3275862,60.7758621 38.5344828,61.6551724 39.0517241,61.4482759 Z" id="Shape" fill="#000000"></path>
                <path d="M74.637931,45.2586207 C77.6896552,42.4137931 75.6724138,40.2931034 72.5172414,36.8275862 C72.1551724,36.4137931 78.5172414,42.5689655 74.0172414,44.637931 C73.5,44.8448276 74.2241379,45.6206897 74.637931,45.2586207 Z" id="Shape" fill="#000000"></path>
            </g>
        </g>
    </g>
</svg>